<?xml version="1.0" encoding="UTF-8"?>
<svg width="113px" height="117px" viewBox="0 0 113 117" version="1.1" xmlns="http://www.w3.org/2000/svg" xmlns:xlink="http://www.w3.org/1999/xlink">
    <title>九天-logo-5000-300dpi</title>
    <defs>
        <filter id="filter-1">
            <feColorMatrix in="SourceGraphic" type="matrix" values="0 0 0 0 0.286275 0 0 0 0 0.964706 0 0 0 0 1.000000 0 0 0 1.000000 0"></feColorMatrix>
        </filter>
    </defs>
    <g id="页面-1" stroke="none" stroke-width="1" fill="none" fill-rule="evenodd">
        <g id="九天-logo-5000-300dpi" transform="translate(-212.000000, -172.000000)" filter="url(#filter-1)">
            <g transform="translate(212.000000, 172.000000)">
                <path d="M98.1616258,74.0259889 C96.5351316,73.1546765 95.846898,72.8192237 92.9868091,71.4380037 C99.1718022,57.1444917 104.794654,44.1495379 105.7111,42.0318115 L99.507409,39.3883179 L101.643546,34.3430684 L113,39.1819039 C113,39.1819039 106.79511,53.6880776 98.1616258,74.0259889 Z M79.3451128,117 L68.1734824,111.900684 L70.412459,106.910462 L76.4238955,109.654399 C78.2323366,105.403327 81.6742238,97.3375601 85.6583557,88.1301479 C86.7301399,89.5450092 88.0243835,90.5645841 90.4158215,91.8559335 C83.5646489,107.688299 79.3451128,117 79.3451128,117 Z M41.9664287,10.0032717 L35.938931,7.34197227 L7.37097956,73.3622921 L13.4904335,75.9079852 L11.3973739,80.9712569 L0,76.2302218 L32.8748412,0 L44.1677694,4.98613678 L41.9664287,10.0032717 Z" id="ok" fill="#333333"></path>
                <path d="M53.6436268,40.1416451 C50.9506221,39.1881516 49.1858099,40.1416451 49.1858099,40.1416451 C49.1858099,40.1416451 49.5712783,36.6496673 46.3098996,34.6602588 C43.0485208,32.6703697 38.4320099,31.0940296 39.4076668,32.9291682 C40.5590377,35.0951941 41.5646595,38.2663771 41.5646595,38.2663771 C41.5646595,38.2663771 43.1530384,41.022329 41.420828,41.5841405 C34.8184838,43.7254159 27.4722912,47.0657671 27.4722912,47.0657671 C27.4722912,47.0657671 24.7536366,48.7742699 31.2111904,51.104658 C33.4719815,51.9207024 38.4010862,49.6621627 38.4010862,49.6621627 C38.4010862,49.6621627 34.8033815,58.5908318 30.6358645,60.4809982 C27.5240706,61.8924954 26.9348409,63.3474861 27.7599542,63.942939 C28.5850674,64.5383919 30.0672508,67.0437153 37.3945056,60.0482255 C41.0729955,56.5360628 46.453731,46.2002218 46.453731,46.2002218 L50.0487988,44.7577264 C50.0487988,44.7577264 45.3021203,53.1428466 44.8718245,57.7401848 C44.5182388,61.5205176 46.7536197,65.6463956 51.6304655,66.6837523 C55.5474761,67.517098 58.7120082,66.9454344 63.1343467,66.1788909 C60.4847312,76.371756 58.4816382,79.6337708 49.1858099,82.4072643 C44.4046119,83.8648983 51.3840343,87.4736599 60.5458595,82.840037 C68.6778514,78.7271349 66.9545106,75.3872643 67.1606691,72.0212015 C67.3668275,68.6551386 68.2391654,66.1068022 68.2391654,66.1068022 C68.2391654,66.1068022 71.1925051,64.8471719 84.1289477,80.2434011 C94.241499,92.278854 96.8117675,87.873512 105.123549,87.3117006 C113.43533,86.7498891 104.320729,82.1974861 98.0772447,78.8009057 C91.8337601,75.4043253 91.0261464,76.250647 82.4032097,69.2803882 C73.780273,62.3101294 71.4746545,61.202366 71.4746545,61.202366 C71.4746545,61.202366 78.4392142,56.4781516 83.8412847,55.2879667 C89.2433552,54.0977819 87.1537236,52.4159519 83.8412847,50.3835305 C80.5288458,48.3511091 79.26217,49.1585028 75.7886399,51.5374307 C72.3151097,53.9163586 71.7623174,52.9799261 71.7623174,52.9799261 C71.7623174,52.9799261 71.1390477,53.2223845 70.7557368,51.8260259 C70.496121,50.8804621 69.6813157,49.431719 70.3242424,48.0754898 C70.9671691,46.7192606 72.330212,45.9844362 73.3439842,45.1904991 C74.3577564,44.3965619 79.2523415,40.6993715 81.8281235,39.4205176 C85.6454109,37.5248244 84.8775905,34.904159 80.3900485,32.9291682 C75.9025064,30.9541774 75.612686,30.9224584 74.3505648,32.2078004 C73.0884436,33.4931423 70.3091401,35.7973383 67.3045006,36.6797043 C64.299861,37.5620702 59.8290994,35.5212384 61.1211854,38.9877449 C62.4132715,42.4542514 63.4663576,42.8485767 65.2913394,43.7480037 C67.1163211,44.6474307 65.9304305,51.9216636 65.2913394,55.2879667 C64.864879,57.6169131 60.5499348,59.7985582 56.5195371,60.7695933 C52.4891395,61.7406285 47.8165343,62.9147135 50.0487988,56.8748799 C52.2810632,50.8350462 54.3373739,47.2803512 55.8006195,45.9116266 C57.263865,44.542902 58.3478749,41.8073752 53.6436268,40.1416451 Z" id="形状_10_拷贝" fill="#333333"></path>
            </g>
        </g>
    </g>
</svg>